# xmcd CD database file
#
# Track frame offsets:
#        150
#        17382
#        35795
#        53856
#        65601
#        88823
#        110711
#        138324
#        163449
#        177246
#        197887
#
# Disc length: 2964 seconds
#
# Revision: 0
# Processed by: cddbd v1.5.2PL0 Copyright (c) Steve Scherf et al.
# Submitted via: CUERipper 2.1.2a
#
DISCID=a20b920b
DTITLE=Kirsti Huke - Deloo
DYEAR=1900
DGENRE=Jazz vocal
TTITLE0=Old country
TTITLE1=Maria
TTITLE2=Wish you were here
TTITLE3=Don't worry 'bout me
TTITLE4=Caravan
TTITLE5=Everytime we say goodbye
TTITLE6=Not dark yet
TTITLE7=I will wait for you
TTITLE8=My man's gone now
TTITLE9=Someone to watch over me
TTITLE10=In the wee small hours of the morning
EXTD=
EXTT0=
EXTT1=
EXTT2=
EXTT3=
EXTT4=
EXTT5=
EXTT6=
EXTT7=
EXTT8=
EXTT9=
EXTT10=
PLAYORDER=
